<svg width="21" height="21" viewBox="0 0 21 21" fill="none" xmlns="http://www.w3.org/2000/svg">
<rect width="21" height="21" rx="10.5" fill="#8F98B0"/>
<path d="M11.1074 14.8835C10.4336 14.8835 9.83292 14.7595 9.30533 14.5116C8.78091 14.2637 8.36456 13.9221 8.05627 13.4866C7.74798 13.0512 7.58747 12.5522 7.57476 11.9897H9.57707C9.59932 12.3679 9.75823 12.6746 10.0538 12.9098C10.3494 13.145 10.7006 13.2626 11.1074 13.2626C11.4316 13.2626 11.7176 13.1911 11.9655 13.048C12.2166 12.9018 12.4121 12.7 12.5519 12.4426C12.6949 12.182 12.7665 11.8832 12.7665 11.5463C12.7665 11.2031 12.6934 10.9011 12.5472 10.6405C12.4041 10.3799 12.2055 10.1765 11.9512 10.0303C11.697 9.88407 11.4062 9.80938 11.0788 9.80621C10.7928 9.80621 10.5147 9.865 10.2445 9.9826C9.97753 10.1002 9.76935 10.2607 9.61998 10.4641L7.78453 10.1352L8.24696 4.98636H14.2157V6.67402H9.94893L9.69625 9.1197H9.75346C9.92509 8.87815 10.1841 8.67792 10.5305 8.51901C10.877 8.36009 11.2647 8.28064 11.6938 8.28064C12.2818 8.28064 12.8062 8.41889 13.267 8.6954C13.7279 8.97191 14.0918 9.35171 14.3588 9.83481C14.6257 10.3147 14.7576 10.8677 14.7545 11.4939C14.7576 12.1518 14.6051 12.7366 14.2968 13.2483C13.9917 13.7568 13.5642 14.1573 13.0144 14.4497C12.4677 14.7389 11.832 14.8835 11.1074 14.8835Z" fill="white"/>
</svg>
